<svg width="160" height="51" viewBox="0 0 160 51" fill="none" xmlns="http://www.w3.org/2000/svg">
<path d="M66.9069 23.8321H56.9948C55.8326 23.8321 54.8446 23.4457 54.031 22.6768C53.2173 21.904 52.8105 20.9357 52.8105 19.7761V15.072C52.8105 13.9124 53.2173 12.944 54.031 12.1713C54.8446 11.4024 55.8322 11.016 56.9948 11.016H66.9069V14.0082H56.9948C56.1977 14.0082 55.7992 14.3658 55.7992 15.0763V19.7722C55.7992 20.4831 56.1977 20.8403 56.9948 20.8403H63.9183V18.9201H59.8589V15.9279H66.9069V23.8321ZM81.8247 14.0078H71.1407V15.9279H81.1277V18.9201H71.1407V20.8403H81.7999V23.8325H68.1521V11.016H81.8247V14.0082V14.0078ZM96.743 23.8321H93.7543L86.059 15.2044V23.8321H83.0703V11.0156H86.059L93.7543 19.5932V11.0156H96.743V23.8321ZM111.661 14.0078H100.977V15.9279H110.964V18.9201H100.977V20.8403H111.636V23.8325H97.9886V11.016H111.661V14.0082V14.0078ZM127.949 23.8321H123.864L117.464 16.6507H125.16C125.708 16.6507 125.982 16.2103 125.982 15.3294C125.982 14.4482 125.708 14.0078 125.16 14.0078H115.895V23.8321H112.906V11.0156H125.334C126.479 11.0156 127.384 11.4643 128.048 12.3621C128.663 13.1767 128.97 14.1659 128.97 15.3294C128.97 16.4929 128.663 17.4822 128.048 18.2968C127.384 19.1945 126.479 19.6432 125.334 19.6432H124.188L127.949 23.8325L127.949 23.8321ZM145.93 23.8321H142.942V19.7674H135.072V16.7753H142.942V14.9801C142.942 14.3319 142.726 14.0078 142.294 14.0078H133.827C133.412 14.0078 133.204 14.3319 133.204 14.9762V23.8321H130.215V14.9718C130.215 13.8954 130.552 12.9645 131.224 12.1835C131.897 11.4064 132.764 11.0156 133.827 11.0156H142.294C143.373 11.0156 144.249 11.4064 144.922 12.1835C145.594 12.9645 145.93 13.8954 145.93 14.9718V23.8321ZM160.001 23.8321H147.176V11.0156H150.164V20.8399H160.001V23.8321Z" fill="#243B71"/>
<path d="M69.0417 31.8676C69.0417 33.0284 68.7224 34.0212 68.084 34.8452C67.3952 35.7706 66.4879 36.2331 65.362 36.2331H55.835V40.4472H52.8105V27.4766H65.3624C66.4883 27.4766 67.3956 27.9391 68.0844 28.8644C68.7227 29.7054 69.0421 30.7065 69.0421 31.8673L69.0417 31.8676ZM66.0173 31.8676C66.0173 30.9592 65.7991 30.505 65.362 30.505H55.835V33.205H65.362C65.7991 33.205 66.0173 32.7591 66.0173 31.8676ZM86.2058 40.4476H83.1814V36.334H75.2166V33.306H83.1814V31.4891C83.1814 30.8331 82.9628 30.505 82.5261 30.505H73.9568C73.537 30.505 73.3268 30.8331 73.3268 31.4848V40.4472H70.3023V31.4805C70.3023 30.3911 70.6426 29.4491 71.3231 28.6582C72.0036 27.8716 72.8814 27.4766 73.9568 27.4766H82.5261C83.6181 27.4766 84.5046 27.8716 85.1851 28.6582C85.8656 29.4487 86.2058 30.3911 86.2058 31.4805V40.4472V40.4476ZM101.731 40.4476H91.6999C90.5236 40.4476 89.5237 40.0564 88.7006 39.2781C87.8772 38.4959 87.4656 37.5161 87.4656 36.3427V31.5818C87.4656 30.4084 87.8776 29.4286 88.7006 28.6464C89.5237 27.8685 90.5236 27.4774 91.6999 27.4774H101.731V30.5054H91.6999C90.8933 30.5054 90.4901 30.867 90.4901 31.5861V36.3388C90.4901 37.0579 90.8933 37.4195 91.6999 37.4195H101.731V40.4476ZM118.215 40.4476H114.082L107.604 33.9751L113.628 27.4774H117.761L111.687 33.9751L118.215 40.4476ZM106.016 40.4476H102.992V27.477H106.016V40.4476Z" fill="#F28F15"/>
<path d="M44.7342 22.6166V37.8871C37.1731 42.247 29.6159 46.6196 22.0666 51C14.7099 46.7505 7.35987 42.4887 0 38.2447V12.7553C7.352 8.49908 14.704 4.2385 22.0662 0C29.5427 4.31381 37.0144 8.63708 44.4877 12.9564C42.9936 13.8195 41.4987 14.6814 40.0062 15.5476L22.0654 5.17688L4.4965 15.3327V35.6681L22.067 45.8247L40.2511 35.325V29.0264L31.7933 33.9037V28.9578C36.1035 26.3824 40.42 23.8168 44.7342 21.2477V22.617V22.6166Z" fill="#243B71"/>
<path d="M23.761 22.2917L25.7241 23.4075C25.6785 28.1006 25.7801 32.664 25.7241 37.3571L22.0661 39.468V25.4822L6.54688 16.4358C12.2638 13.1263 16.4035 10.6175 22.1283 7.32129C26.6862 9.95113 31.2402 12.5896 35.7938 15.2278L23.761 22.2917ZM13.6429 16.4358L20.2081 20.2367L28.6868 15.227L22.122 11.4261L13.6433 16.4358H13.6429Z" fill="#F28F15"/>
</svg>
